<?xml version="1.0" encoding="UTF-8"?>
<svg id="Layer_1" data-name="Layer 1" xmlns="http://www.w3.org/2000/svg" viewBox="0 0 924.24 896.39">
  <defs>
    <style>
      .cls-1 {
        fill: #187c73;
      }

      .cls-2 {
        fill: #6ee7dc;
      }

      .cls-3 {
        fill: #c2faf2;
      }

      .cls-4 {
        fill: #128a7b;
      }

      .cls-5 {
        fill: #b5ce62;
      }

      .cls-6 {
        fill: #95cac9;
      }

      .cls-7 {
        fill: #147d72;
      }

      .cls-8 {
        fill: #1cf0ea;
      }

      .cls-9 {
        fill: #16baa2;
      }

      .cls-10 {
        fill: #396410;
      }

      .cls-11 {
        fill: #d9d02b;
      }

      .cls-12 {
        fill: #9bc33f;
      }

      .cls-13 {
        fill: #1db7a9;
      }

      .cls-14 {
        fill: #34560f;
      }

      .cls-15 {
        fill: #1da395;
      }

      .cls-16 {
        fill: #e6e995;
      }

      .cls-17 {
        fill: #528a0c;
      }
    </style>
  </defs>
  <path d="M886.06,617.81c-4.19,29.69-10.39,61.83-20.37,90.11-3.3,9.36-3.87,13.73-12.16,19.83-16.9,12.42-42.49,14.97-60.42,24.99.89,16.66,6.77,35.35,7.48,51.64.44,10.1-.1,10.97-8.8,15.54-12.06,6.33-30.07,6.59-43.04,2.77-11.86-3.49-18.94-26.92-28.06-35.4l-89.05,16.47-3.53,76.47c-1.84,6.32-22.33,14.48-28.56,15.62-9.73,1.77-33.68-.77-40.5-8.4l-41.28-79.37c-100.89-3.16-201.94-9.44-301.5-25.82-20.02,15.9-36.34,36.96-56.09,53.65-17.69,6.02-35.33,9.76-52.42-.02-6.13-3.51-7.23-5.97-6.45-13.1l19.71-58.81c-23.48-5.03-74.39-12.07-92.16-27.47-13.44-11.66-16.82-47.11-19.07-64.74-16.19-126.78-14.01-286.43,19.59-410.08,8.78-32.31,11.32-40,45.6-47.35,59.09-12.66,133.69-15.85,194.53-18.8,24.52-1.19,49.12-1.22,73.73-1.71,7.57-17.69,23.19-34.1,41.38-40.92-16.18-31.4-38.71-60.26-53.35-92.93-28.28,15.33-55.48-18.98-33.49-41.89,23.02-23.98,59.08,5.76,41.88,34.26l77.62,88.51c7.97,1.17,25.2,5.51,32.19,1.5,8.2-4.7,26.9-29.77,34.94-38.2,19.56-20.51,40-40.31,59.5-60.9-14.35-23.7,5.23-50.36,32.3-41.52,24.19,7.9,20,51.58-9.5,51.33-4.56-.04-10.1-3.59-13.78-.83l-72.24,106.06c14.02,9.64,23.24,24.03,31.37,38.63,59.23,3.42,120.96,7.15,179.12,18.97,22.17,4.51,102.87,31.59,115.53,47.52,5.8,7.29,5.94,19.37,9.85,23.67,5.72,6.28,40.07,23.6,50.37,30.39,16.32,10.75,36.18,20.12,40.2,40.56,4.38,22.26,2.92,56.04,1.66,79.07-.44,8.08-1.9,17.65-2.84,25.81.74,2.94,13.32,4.48,16.28,9.54,5.2,8.89-1.1,59.6-2.98,72.64-1.76,12.19-8.84,55.38-14.37,63.35-4.38,6.32-11.22,9.04-18.82,9.37ZM585.95,26.34c0-11.28-9.14-20.42-20.42-20.42s-20.42,9.14-20.42,20.42,9.14,20.42,20.42,20.42,20.42-9.14,20.42-20.42ZM312.6,16.14c-16.33,3.32-22.63,27.91-7.72,37.5,22.51,14.47,45.98-16.69,25.42-33.04-5-3.97-11.37-5.74-17.7-4.46ZM549.17,46.28l-92.95,101.34c5.44.25,15.36,8.36,19.12,5.46l73.83-106.8ZM409,145.32l-1.45-5.4-71.68-82.97,54.11,89.92c4.18,3.65,13.14-3.1,19.02-1.54ZM501.94,197.12c-25.76-62.5-122.33-62.57-150.86-2.29l150.86,2.29ZM334.02,200.63c-68.56,1.71-142.65,4.69-210.51,13.48-15.97,2.07-61.03,7.36-72.51,15.87-10.4,7.7-17.3,43.77-20.38,57.33C3.23,407.93-.91,573.91,20.88,695.73c5.27,29.49,6.54,35.11,35.31,45.45,44.48,15.98,106.92,25.65,154.21,33.21,140.12,22.41,287.03,32.26,428.61,20.74,28.77-13.27,33.6-44.43,40.49-72.27,31.29-126.51,52.05-292.82,44.99-422.93-1.1-20.32-6.75-62.01-25.19-73.85-7.1-4.56-34.44-7.41-44.42-8.91-103.47-15.57-216.12-19.14-320.85-16.53ZM651.28,792.91c25-3.39,52.04-7.18,76.19-14.46,12.75-3.84,19.96-4.79,27.48-16.71,20.09-31.83,34.64-130.5,40.84-170.97,13.59-88.7,23.89-200.3,13.95-289.25-2.1-18.82-2.6-31.19-19.99-40.97-14.46-8.13-61.68-29.14-76.75-31.44-.9-.14-2.51-.4-2.29.77,12.14,14.47,16.27,33.43,18.26,51.84,13.27,122.99-12.74,328.2-44.92,448.75-6.18,23.14-11.61,48.63-32.77,62.45ZM916.41,497.32c-.81-5.52,1.54-15.03-.75-19.82-2.51-5.24-16.32-4.75-17.57-11.45,2.15-24.35,5.63-48.66,4.67-73.18-.25-6.33-.99-16.42-1.78-22.6-.78-6.09-2.19-15.55-5.05-20.86-5.13-9.54-25.13-18.09-33.58-25.84l-46.5-27.39c6.99,72.13,4.02,145.02-3.07,217.12-5.06,51.43-12.89,104.39-23.33,154.96-5.81,28.16-11.91,56.77-22.37,83.51,17.82-8.35,74.1-18.55,85.37-32.71,4.04-5.08,9.92-26.29,12.03-33.68,6.41-22.46,11.2-46.51,14.09-69.71,1.37-3.97,12.22-5.04,16.44-7.94,7.12-4.89,8.05-17.14,9.21-25.07-9.97-2.33-74.51,4.62-77.5-.21-7.01-11.34,19.44-5.92,23.34-5.83,18.53.46,37.41-1.57,55.67,1.47l2.89-21.19-76.78-3.2c-5.93-1.07-5.53-6.9,1.44-7.69,16.93-1.92,39,2.62,56.39,3.19,4.31.14,16.54.75,19.66-.28,3.6-1.19,3.21-15.32,4.03-19.6l-76.91-6.15-3.85-5.27c1.1-3.47,12.56-2.42,15.97-2.28,15.1.61,33.4,2.98,48.76,4.57,5.78.6,11.81,2.03,17.53,3.02l1.49-19.75c-9.59-3.97-78.37-8.98-80.5-12.46-.81-1.32.04-4.12-.22-5.87l80.76,12.19ZM794.26,810.94c-3.35-17.64-4.05-36.18-7.4-53.78-.34-1.79-.6-2.75-2.23-3.8-5.69,3.86-24.73,5.04-23.43,14.05l18.09,49.9,14.97-6.38ZM172.81,774.66c-6.8.57-41.43-8.9-44.25-6.97-2.77,7.33-22.43,57.21-20.58,60.37,1.19,2.03,19.63,8.2,22.15,6.86l42.68-60.26ZM774.7,818.83l-16.77-45.7c-7.97,7.09-18.64,10.14-28.94,12.2-.25,1.74,0,2.96.79,4.53,1.18,2.33,16.72,23.36,18.22,24.44,6.28,4.53,18.91,2.87,26.69,4.53ZM137.77,834.06l20.64-4.49,46.4-48.05c-.47-2.27-22.42-6.57-25.91-4.61l-41.12,57.15ZM623.86,803.59l-36.58,1.55,13.72,82.28c1.22,1.18,19.33-6.92,19.82-8.71l3.03-75.12ZM596.42,888.92l-14.42-82.34-55.66.08c8.41,18.41,16.97,37.08,26.63,54.88,2.65,4.88,9.16,18.37,12.13,21.39,6.2,6.29,22.86,5.87,31.32,5.99Z"/>
  <path class="cls-9" d="M334.02,200.63c104.73-2.61,217.39.96,320.85,16.53,9.98,1.5,37.32,4.36,44.42,8.91,18.44,11.84,24.09,53.53,25.19,73.85,7.05,130.11-13.7,296.42-44.99,422.93-6.89,27.84-11.72,59-40.49,72.27-141.58,11.52-288.48,1.67-428.61-20.74-47.29-7.56-109.73-17.23-154.21-33.21-28.77-10.34-30.04-15.96-35.31-45.45C-.91,573.91,3.23,407.93,30.62,287.31c3.08-13.57,9.98-49.63,20.38-57.33,11.48-8.5,56.54-13.8,72.51-15.87,67.86-8.79,141.95-11.77,210.51-13.48ZM286.78,238.72c-21.33.5-43.12,1.37-64.43,2.61-31.63,1.85-106.93,5.07-133.37,17.49-20.09,9.43-28.98,59.35-33.02,79.74-19.01,95.81-22.93,199.58-9.37,296.41,1.9,13.55,7.17,52.05,14.96,61.23,5.82,6.84,30.14,13.83,39.64,16.74,87.51,26.79,179.09,38.33,270.45,41.92,41.13,1.62,93.45,5.04,133.94-.18,27.81-3.59,34.08-38.17,39.51-61.06,18.09-76.26,27.81-173.3,30.06-251.84,1.24-43.47,2.74-100.67-3.3-143.11-4.32-30.36-11.77-35.46-40.64-41.64-73.36-15.7-169.36-20.03-244.43-18.29ZM618.88,369.68c-8.61,1.35-32.03,12.95-35.06,21.39-.98,2.72.75,5.19.3,7.72-2.5,14-5.77,21.45-2.58,36.45,14.23,66.85,120.15,57.73,112.38-17.9-3.44-33.5-44.71-52.4-75.04-47.65ZM666.52,556.06c0-23.15-18.76-41.91-41.91-41.91s-41.91,18.76-41.91,41.91,18.76,41.91,41.91,41.91,41.91-18.76,41.91-41.91ZM650.7,651.63c0-21.11-17.11-38.22-38.22-38.22s-38.22,17.11-38.22,38.22,17.11,38.22,38.22,38.22,38.22-17.11,38.22-38.22Z"/>
  <path class="cls-4" d="M651.28,792.91c21.16-13.82,26.59-39.31,32.77-62.45,32.19-120.54,58.19-325.75,44.92-448.75-1.99-18.41-6.12-37.37-18.26-51.84-.22-1.17,1.38-.91,2.29-.77,15.08,2.3,62.3,23.31,76.75,31.44,17.39,9.78,17.88,22.14,19.99,40.97,9.94,88.96-.36,200.55-13.95,289.25-6.2,40.47-20.75,139.13-40.84,170.97-7.52,11.92-14.73,12.87-27.48,16.71-24.15,7.28-51.18,11.07-76.19,14.46Z"/>
  <path class="cls-7" d="M916.41,497.32l-80.76-12.19c.26,1.76-.59,4.55.22,5.87,2.13,3.48,70.91,8.49,80.5,12.46l-1.49,19.75c-5.72-.99-11.75-2.42-17.53-3.02-15.36-1.59-33.66-3.97-48.76-4.57-3.41-.14-14.87-1.19-15.97,2.28l3.85,5.27,76.91,6.15c-.82,4.27-.43,18.41-4.03,19.6-3.12,1.03-15.35.42-19.66.28-17.4-.57-39.46-5.1-56.39-3.19-6.97.79-7.37,6.61-1.44,7.69l76.78,3.2-2.89,21.19c-18.27-3.04-37.14-1-55.67-1.47-3.9-.1-30.35-5.51-23.34,5.83,2.99,4.83,67.53-2.11,77.5.21-1.16,7.93-2.09,20.18-9.21,25.07-4.23,2.9-15.07,3.97-16.44,7.94-2.89,23.2-7.69,47.26-14.09,69.71-2.11,7.39-7.99,28.6-12.03,33.68-11.27,14.16-67.54,24.37-85.37,32.71,10.47-26.74,16.57-55.36,22.37-83.51,10.43-50.57,18.27-103.52,23.33-154.96,7.09-72.1,10.06-144.99,3.07-217.12l46.5,27.39c8.45,7.76,28.45,16.3,33.58,25.84,2.86,5.31,4.27,14.77,5.05,20.86.79,6.18,1.54,16.26,1.78,22.6.95,24.53-2.53,48.83-4.67,73.18,1.25,6.7,15.06,6.21,17.57,11.45,2.29,4.78-.06,14.3.75,19.82Z"/>
  <path class="cls-11" d="M501.94,197.12l-150.86-2.29c28.53-60.28,125.1-60.21,150.86,2.29Z"/>
  <path class="cls-17" d="M596.42,888.92c-8.46-.12-25.13.3-31.32-5.99-2.97-3.02-9.48-16.51-12.13-21.39-9.66-17.8-18.21-36.47-26.63-54.88l55.66-.08,14.42,82.34Z"/>
  <path class="cls-17" d="M172.81,774.66l-42.68,60.26c-2.52,1.34-20.96-4.83-22.15-6.86-1.85-3.16,17.81-53.04,20.58-60.37,2.82-1.93,37.45,7.54,44.25,6.97Z"/>
  <path class="cls-15" d="M623.86,803.59l-3.03,75.12c-.49,1.79-18.6,9.89-19.82,8.71l-13.72-82.28,36.58-1.55Z"/>
  <path class="cls-6" d="M549.17,46.28l-73.83,106.8c-3.76,2.9-13.69-5.2-19.12-5.46l92.95-101.34Z"/>
  <path class="cls-11" d="M312.6,16.14c6.33-1.29,12.71.49,17.7,4.46,20.56,16.35-2.91,47.51-25.42,33.04-14.91-9.59-8.62-34.18,7.72-37.5Z"/>
  <circle class="cls-17" cx="565.53" cy="26.34" r="20.42"/>
  <path class="cls-4" d="M137.77,834.06l41.12-57.15c3.49-1.96,25.44,2.34,25.91,4.61l-46.4,48.05-20.64,4.49Z"/>
  <path class="cls-4" d="M794.26,810.94l-14.97,6.38-18.09-49.9c-1.3-9.01,17.74-10.19,23.43-14.05,1.62,1.04,1.89,2.01,2.23,3.8,3.35,17.6,4.06,36.14,7.4,53.78Z"/>
  <path class="cls-10" d="M774.7,818.83c-7.78-1.66-20.42,0-26.69-4.53-1.5-1.09-17.05-22.12-18.22-24.44-.79-1.57-1.04-2.79-.79-4.53,10.3-2.06,20.96-5.12,28.94-12.2l16.77,45.7Z"/>
  <path class="cls-6" d="M409,145.32c-5.88-1.56-14.83,5.19-19.02,1.54l-54.11-89.92,71.68,82.97,1.45,5.4Z"/>
  <path d="M286.78,238.72c75.07-1.75,171.07,2.58,244.43,18.29,28.87,6.18,36.32,11.28,40.64,41.64,6.04,42.44,4.54,99.64,3.3,143.11-2.24,78.54-11.96,175.58-30.06,251.84-5.43,22.89-11.7,57.47-39.51,61.06-40.49,5.23-92.81,1.8-133.94.18-91.36-3.59-182.94-15.14-270.45-41.92-9.5-2.91-33.83-9.89-39.64-16.74-7.8-9.17-13.07-47.67-14.96-61.23-13.56-96.83-9.64-200.6,9.37-296.41,4.05-20.39,12.93-70.31,33.02-79.74,26.44-12.42,101.74-15.63,133.37-17.49,21.31-1.25,43.1-2.12,64.43-2.61ZM286.78,244.82c-53.45,1.29-116.7,3.79-168.86,14-13.22,2.59-29.96,4.11-37.35,15.98-15.83,25.42-27.77,113.19-31.17,145.58-7.73,73.5-8.2,177.26,8.31,249.18,4.96,21.62,7.38,23.87,27.87,31.56,110.13,41.3,281.61,55.08,398.91,49.21,6.24-.31,20.78-1.23,25.92-3.04,22.33-7.84,29.77-60.95,33.77-82.04,20.11-106.16,35.22-261.86,21.75-368.29-1.57-12.43-5.25-24.3-17.89-29.35-17.57-7.01-71.47-12.92-92.76-15.43-54.67-6.46-113.46-8.7-168.5-7.37Z"/>
  <path d="M618.88,369.68c30.34-4.75,71.6,14.15,75.04,47.65,7.77,75.64-98.15,84.75-112.38,17.9-3.19-15,.08-22.45,2.58-36.45.45-2.53-1.28-5-.3-7.72,3.03-8.43,26.45-20.04,35.06-21.39ZM669.55,450.07c17.41-39.55-14.37-83.92-57.88-73.13l41.2,55.55c3.04,2,13.61,19.85,16.68,17.58ZM664.99,466.83c12.03-4.54,22.61-22.09,24.25-34.4,3.09-23.18-10.23-47.99-33.39-53.95,27.94,20.3,30.47,62.29,9.14,88.35ZM646.74,471.4c1.58,1.1,12.44-6.7,12.22-9.9-20.22-26.07-39.77-53.51-61.77-78.44-2.3,3.21-9.13,6.4-7.69,10.56l57.24,77.78ZM608.77,380.62l-4.28,3.24,56.77,74.9,4.28-3.24-56.77-74.9ZM643.65,474.45l-54.09-71.58c-15.16,37.88,13.69,75.44,54.09,71.58Z"/>
  <path d="M666.52,556.06c0,23.15-18.76,41.91-41.91,41.91s-41.91-18.76-41.91-41.91,18.76-41.91,41.91-41.91,41.91,18.76,41.91,41.91ZM615.9,520.53c-21.49,2.34-33.63,28.92-26.31,48.38,16.54,43.98,77.7,11.56,58.91-29.96-5.24-11.57-20.1-19.78-32.59-18.43ZM640.61,588.73c23.05-9.79,31.2-40.33,12.04-58.5-2.14-2.03-9.85-7.52-12.04-6.25,20.9,17.06,20.4,47.33,0,64.75Z"/>
  <path d="M650.7,651.63c0,21.11-17.11,38.22-38.22,38.22s-38.22-17.11-38.22-38.22,17.11-38.22,38.22-38.22,38.22,17.11,38.22,38.22ZM605.19,619.55c-21.26,3.14-32.98,30.81-20.71,48.94,19.45,28.73,55.83,8.37,51.42-24-1.67-12.23-18.24-26.78-30.71-24.94ZM628.42,680.16c16.42-4.96,22.53-28.03,15.84-42.49-2.09-4.51-12.07-16.86-17.36-14.64,18.05,15.12,17.23,40.49,1.52,57.13Z"/>
  <path class="cls-17" d="M286.78,244.82c55.03-1.33,113.83.9,168.5,7.37,21.28,2.52,75.19,8.42,92.76,15.43,12.64,5.05,16.32,16.92,17.89,29.35,13.47,106.43-1.64,262.12-21.75,368.29-4,21.09-11.44,74.2-33.77,82.04-5.14,1.8-19.68,2.72-25.92,3.04-117.29,5.87-288.78-7.91-398.91-49.21-20.49-7.69-22.91-9.94-27.87-31.56-16.51-71.92-16.05-175.67-8.31-249.18,3.41-32.39,15.34-120.16,31.17-145.58,7.39-11.87,24.13-13.4,37.35-15.98,52.16-10.21,115.41-12.7,168.86-14ZM268.5,273.77c-20.93,1.04-44.98,3.23-65.78,5.83-78.29,9.8-97.06,18.29-114.76,97.05-15.69,69.81-17.93,153.71-4.01,224.01,10.01,50.53,17.14,73.15,69.62,87.33,86.15,23.29,163.33,33.51,253.21,30.34,44.34-1.56,84.49,1.07,103.96-45.38,32.67-77.95,43.28-236.79,29.13-319.45-8.75-51.11-36.39-55.89-82.07-65.74-57.23-12.35-130.75-16.9-189.3-13.99Z"/>
  <path class="cls-11" d="M669.55,450.07c-3.07,2.27-13.64-15.58-16.68-17.58l-41.2-55.55c43.5-10.79,75.29,33.58,57.88,73.13Z"/>
  <path class="cls-11" d="M643.65,474.45c-40.4,3.86-69.25-33.7-54.09-71.58l54.09,71.58Z"/>
  <path class="cls-11" d="M646.74,471.4l-57.24-77.78c-1.45-4.16,5.39-7.35,7.69-10.56,22,24.93,41.54,52.37,61.77,78.44.23,3.21-10.63,11.01-12.22,9.9Z"/>
  <path class="cls-11" d="M664.99,466.83c21.33-26.06,18.8-68.05-9.14-88.35,23.16,5.96,36.48,30.77,33.39,53.95-1.64,12.31-12.22,29.86-24.25,34.4Z"/>
  <rect class="cls-11" x="632.33" y="372.7" width="5.37" height="93.98" transform="translate(-124.57 468.82) rotate(-37.16)"/>
  <path class="cls-11" d="M615.9,520.53c12.49-1.36,27.35,6.85,32.59,18.43,18.79,41.51-42.37,73.94-58.91,29.96-7.32-19.46,4.83-46.04,26.31-48.38Z"/>
  <path class="cls-11" d="M640.61,588.73c20.41-17.42,20.9-47.69,0-64.75,2.18-1.28,9.9,4.22,12.04,6.25,19.16,18.17,11.01,48.71-12.04,58.5Z"/>
  <path class="cls-11" d="M605.19,619.55c12.47-1.84,29.05,12.71,30.71,24.94,4.41,32.37-31.97,52.73-51.42,24-12.27-18.13-.55-45.81,20.71-48.94Z"/>
  <path class="cls-11" d="M628.42,680.16c15.72-16.65,16.53-42.01-1.52-57.13,5.29-2.21,15.27,10.14,17.36,14.64,6.7,14.46.58,37.53-15.84,42.49Z"/>
  <path d="M268.5,273.77c58.55-2.91,132.07,1.65,189.3,13.99,45.68,9.85,73.32,14.63,82.07,65.74,14.15,82.66,3.54,241.5-29.13,319.45-19.47,46.45-59.61,43.81-103.96,45.38-89.88,3.17-167.06-7.05-253.21-30.34-52.48-14.19-59.61-36.8-69.62-87.33-13.93-70.3-11.68-154.2,4.01-224.01,17.7-78.76,36.47-87.25,114.76-97.05,20.81-2.6,44.86-4.8,65.78-5.83ZM112.86,657.84c11.75,13.22,17.78,15.5,34.41,21.21,81.68,28.03,183.95,37.52,270.17,33.18,56.3-2.83,77.33-6.58,94.41-62.54,23.22-76.07,30.62-171.28,26.73-250.72-1.06-21.6-6.42-66.35-20.74-82.88-12.63-14.57-87.22-27.68-108.27-30.4-72.95-9.42-160.12-7.89-232.51,4.83-34.23,6.01-56.53,9.9-70.94,44.87-30.52,74.07-33.34,229.74-4.97,304.43,3.97,10.45,5.12,10.62,11.7,18.02Z"/>
  <path class="cls-8" d="M112.86,657.84c-6.58-7.4-7.73-7.56-11.7-18.02-28.38-74.69-25.55-230.36,4.97-304.43,14.41-34.97,36.71-38.85,70.94-44.87,72.4-12.72,159.56-14.25,232.51-4.83,21.05,2.72,95.64,15.83,108.27,30.4,14.32,16.52,19.69,61.28,20.74,82.88,3.88,79.44-3.51,174.65-26.73,250.72-17.08,55.96-38.11,59.71-94.41,62.54-86.23,4.33-188.5-5.15-270.17-33.18-16.63-5.71-22.66-7.99-34.41-21.21Z"/>
  <path class="cls-12" d="M463.47,254.94c.36,2.66-3.46,1.43-5.31,1.51-6.3.26-13.62.36-19.89.06-70.09-3.35-128.6,2.24-198.04,6.02-43.79,2.38-88.7-1.41-130.94,12.29-21.4,6.94-27.4,40.86-32.1,60.85-21.57,91.61-26.34,184.29-19.02,278.1,1.91,24.55,8.33,49.17,5.33,73.9-7.55-17.36-10.65-39.71-12.93-58.68-10.84-90.01-7.54-182.87,8.07-272.25,3.15-18.06,12.89-74.9,24.78-86.46,7.36-7.16,40.67-11.95,51.91-13.61,73.26-10.86,154.52-12.29,228.37-9.38,33.42,1.32,66.74,2.69,99.78,7.65Z"/>
  <path class="cls-2" d="M556.79,206.28c.36,2.66-3.46,1.43-5.31,1.51-32.48,1.33-66.43-.13-99.13.07-108.15.66-218.35,4.87-326,19.75-17.83,2.46-54.18,5.35-64.52,20.81-11.37,17-21.4,78.08-25.68,100.79-8.06,42.78-16.77,90.74-21.62,133.81-3.17,28.15-3.23,56.83-3.24,85.15l-1.51,5.31-.08-116.62c4.76-64.15,10.51-130.17,26.99-192.43,2.56-9.66,6.36-28.5,14.3-34.46,11.35-8.51,70.65-15.71,87.54-17.6,99.5-11.11,207.86-13.59,307.73-10.62,36.94,1.1,73.58,2.49,110.53,4.52Z"/>
  <path class="cls-16" d="M332.42,22.5c-11.79-2.33-21.1-2.09-27.87,7.94l-6.58,14.76c-8.73-21.13,16.52-40.46,34.45-22.7Z"/>
  <path class="cls-16" d="M351.08,194.95c12.11-27.65,41.29-43.53,70.08-44.86,1.59-.07,6.79-.74,18.47.75-23.38,2.23-55.21,20.54-62.64,44.11h-25.9Z"/>
  <path class="cls-3" d="M332.79,303.58l.06,4.46c-28.22,6.67-58.23,11.7-85.31,22.14-51,19.67-95.73,57.27-121.19,105.85-6.55,12.49-10.95,28.64-17.71,40.19-.85,1.46-3.46,5.5-5.13,2.53-.73-1.29.63-25.89.98-29.54,2.63-27.59,13.5-98.86,30.32-119.01,13.38-16.03,56.37-22.76,76.92-25.17,23.34-2.74,52.63-4.75,76.08-4.64,15,.07,30.18.68,44.99,3.19Z"/>
  <path class="cls-13" d="M899.58,361.28l-81.69-37.39-2.26-28.08c11.77,6.84,23.95,13.2,35.62,20.22,9.87,5.93,41.32,24.25,44.91,32.92,1.67,4.03,2.76,7.95,3.43,12.33Z"/>
  <path class="cls-5" d="M582.23,14.59c-10.61-2.36-21.14-1.71-29.18,6.8-3.17,3.35-3.62,7.56-7.34,9.85-3.59-15.15,9.61-28.86,25.54-24.5,2.23.61,6.71,2.11,10.98,7.85Z"/>
  <path class="cls-17" d="M501.94,197.12c-12.08-29.13-37.05-40.43-48.72-43.19,14.05,7.78,20.27,18.32,23.4,42.8l25.32.38Z"/>
  <path class="cls-14" d="M123.78,780.12c.33-1.03,1.35-2.86,1.92-4.64.93-2.9,2.22-5.69,2.81-8.68l44.3,7.86c-3.67,6.09-5.01,6.87-6.19,8.57-1.24,1.79-2.77,4.31-3.14,4.82-13.01-.39-27.33-4.44-39.7-7.93Z"/>
  <path class="cls-14" d="M536.58,828.83s-8.45-17.5-10.24-22.18l55.66-.08c1.83,10.44,2.9,16.55,2.9,16.55-21.63,1.88-48.32,5.7-48.32,5.7Z"/>
  <path class="cls-1" d="M590.31,823.26s-2.32-13.06-3.02-18.13l36.58-1.55c-.24,10.63-.61,22.17-.61,22.17,0,0-24.85-1.14-32.94-2.5Z"/>
  <path class="cls-1" d="M170.57,788.48s6.47-10.65,8.75-12.14c0,0,14.81-.39,25.48,5.19l-10.45,10.48s-15.69-2.17-23.78-3.53Z"/>
</svg>